<svg xmlns="http://www.w3.org/2000/svg" viewBox="0 0 64 64">
  <defs>
    <linearGradient id="ray" x1="0%" y1="0%" x2="100%" y2="100%">
      <stop offset="0%" stop-color="#c9a86c" stop-opacity="0.95" />
      <stop offset="100%" stop-color="#8b6914" stop-opacity="0.4" />
    </linearGradient>
  </defs>
  <circle cx="32" cy="32" r="30" fill="#0e1626"/>
  <g fill="url(#ray)">
    <path d="M32 6 L34 22 L30 22 Z"/>
    <path d="M32 58 L34 42 L30 42 Z"/>
    <path d="M6 32 L22 30 L22 34 Z"/>
    <path d="M58 32 L42 30 L42 34 Z"/>
    <path d="M14 14 L26 24 L23 27 Z"/>
    <path d="M50 50 L38 40 L41 37 Z"/>
    <path d="M50 14 L38 24 L41 27 Z"/>
    <path d="M14 50 L26 40 L23 37 Z"/>
  </g>
  <circle cx="32" cy="32" r="14" fill="none" stroke="#c9a86c" stroke-width="1.75" opacity="0.85"/>
  <circle cx="32" cy="32" r="8" fill="#1a1510" stroke="#c9a86c" stroke-width="1" opacity="0.9"/>
  <circle cx="32" cy="32" r="4" fill="#22d3ee"/>
</svg>
